# xmcd
#
# Track frame offsets:
#	182
#	14317
#	31370
#	51980
#	65022
#	77600
#	90815
#	106925
#	125320
#	140312
#	158407
#
# Disc length: 2311 seconds
# Revision: 2
# Processed by: cddbd v1.5.2PL0 Copyright (c) Steve Scherf et al.
# Submitted via: dBpowerAMP V12.0
#
DISCID=7b09050b
DTITLE=Sawyer Brown - The Boys Are Back
DYEAR=1989
DGENRE=Country
TTITLE0=Puttin' The Dark Into The Night
TTITLE1=Rosie Knows
TTITLE2=I Did It For Love
TTITLE3=The Rcae Is On
TTITLE4=Hey, Hey
TTITLE5=Good While It Lasted
TTITLE6=Locomotive
TTITLE7=The Heartland
TTITLE8=I'm Gonna Miss You After All
TTITLE9=Gettin' Tough (Good Ol' Boy)
TTITLE10=Passin' Train
EXTD=
EXTT0=
EXTT1=
EXTT2=
EXTT3=
EXTT4=
EXTT5=
EXTT6=
EXTT7=
EXTT8=
EXTT9=
EXTT10=
PLAYORDER=
